<?xml version="1.0" encoding="UTF-8" standalone="no"?>
<!DOCTYPE svg PUBLIC "-//W3C//DTD SVG 1.0//EN" "http://www.w3.org/TR/2001/REC-SVG-20010904/DTD/svg10.dtd">
<svg xmlns:svg="http://www.w3.org/2000/svg" xmlns="http://www.w3.org/2000/svg" version="1.0" width="500" height="500" id="svg2">
  <defs id="defs4"/>
  <path d="M 242.48375,482.18332 L 234.67223,474.36409 L 250.50624,458.54589 L 258.31748,466.35736 L 266.12872,474.16883 L 250.29528,490.00256 L 242.48375,482.18332 z M 184.33703,471.92854 L 199.9737,456.308 L 215.59357,471.94389 L 199.95805,487.56446 L 184.33703,471.92854 z M 284.40324,471.73065 L 300.02659,456.10771 L 315.86002,471.94143 L 300.22161,487.56449 L 284.40324,471.73065 z M 135.62661,468.27517 L 151.46004,452.45703 L 167.0831,468.08003 L 151.24909,483.91373 L 135.62661,468.27517 z M 334.12411,468.2752 L 349.95813,452.45703 L 365.58089,468.08003 L 349.74717,483.91367 L 334.12411,468.2752 z M 210.1191,437.22694 L 225.74216,421.60403 L 241.57588,437.4377 L 225.93689,453.06075 L 210.1191,437.22694 z M 258.01843,437.22685 L 273.64091,421.60403 L 289.26455,437.22685 L 273.64091,452.65478 L 258.01843,437.22685 z M 162.012,434.17741 L 177.84514,418.35922 L 193.4682,433.98219 L 177.63447,449.81586 L 162.012,434.17741 z M 306.52108,434.17735 L 322.35509,418.35919 L 337.97815,433.98216 L 322.14414,449.81586 L 306.52108,434.17735 z M 113.30042,428.90033 L 129.13415,413.08217 L 144.75691,428.70511 L 128.92348,444.53887 L 113.30042,428.90033 z M 355.23237,428.90033 L 371.06609,413.08214 L 386.68915,428.70511 L 370.85571,444.53881 L 355.23237,428.90033 z M 66.82969,419.36866 L 82.64516,403.53757 L 98.28126,419.15808 L 82.44985,434.79403 L 66.82969,419.36866 z M 403.74573,419.36608 L 419.57714,403.53502 L 435.39493,419.36866 L 419.57193,434.794 L 403.74573,419.36608 z M 234.67223,403.73291 L 250.50624,387.91474 L 266.12872,403.53765 L 250.29528,419.37144 L 234.67223,403.73291 z M 187.38983,401.9138 L 203.20559,386.08274 L 218.84111,401.70325 L 203.0097,417.33914 L 187.38983,401.9138 z M 281.15889,401.91383 L 296.97407,386.08274 L 312.56467,401.65752 L 297.00798,417.24578 L 281.15889,401.91383 z M 140.70032,396.97791 L 156.70385,381.61765 L 172.35734,397.04554 L 156.52651,412.8766 L 140.70032,396.97791 z M 327.83797,397.04015 L 343.46103,381.41733 L 359.08351,397.04015 L 343.46103,412.46804 L 327.83797,397.04015 z M 94.62774,389.1194 L 110.05346,373.30405 L 125.88429,389.11961 L 110.05288,404.75544 L 94.62774,389.1194 z M 374.31102,389.11958 L 389.94683,373.49901 L 405.56757,389.135 L 389.93118,404.75553 L 374.31102,389.11958 z M 211.12839,371.66472 L 226.7642,356.04419 L 242.58025,371.8753 L 226.9598,387.30062 L 211.12839,371.66472 z M 256.99812,371.66475 L 272.63422,356.04419 L 288.25467,371.68014 L 272.61857,387.30068 L 256.99812,371.66475 z M 55.46375,371.06343 L 71.27922,355.23232 L 86.91532,370.85288 L 71.08391,386.48878 L 55.46375,371.06343 z M 413.08497,371.06349 L 428.90044,355.23232 L 444.53654,370.85288 L 428.70513,386.48878 L 413.08497,371.06349 z M 167.28855,368.41733 L 183.12257,352.59914 L 198.74563,368.22214 L 182.91161,384.05584 L 167.28855,368.41733 z M 301.24452,368.41733 L 317.07796,352.59917 L 332.70073,368.22211 L 316.867,384.05584 L 301.24452,368.41733 z M 121.8248,362.73439 L 137.65592,346.91884 L 153.08106,362.7421 L 137.64867,378.37026 L 121.8248,362.73439 z M 346.70798,362.73436 L 362.53881,346.91886 L 377.96453,362.7421 L 362.53128,378.37023 L 346.70798,362.73436 z M 16.08619,348.73501 L 31.9176,332.90387 L 47.73829,348.74029 L 31.90659,364.57138 L 16.08619,348.73501 z M 452.45963,348.73751 L 468.27568,332.90639 L 483.9112,348.52693 L 468.07979,364.16282 L 452.45963,348.73751 z M 87.12338,343.45785 L 95.03952,335.54235 L 102.9545,327.62688 L 118.77229,343.46049 L 111.06768,351.17314 L 102.94928,358.88577 L 87.12338,343.45785 z M 381.42013,343.45791 L 397.04318,327.83505 L 412.66537,343.45791 L 397.04318,358.8858 L 381.42013,343.45791 z M 234.67223,342.84399 L 250.30803,327.22342 L 266.12408,343.05457 L 250.50363,358.47988 L 234.67223,342.84399 z M 191.64376,341.22025 L 207.27986,325.59971 L 223.09533,341.43083 L 207.47546,356.85617 L 191.64376,341.22025 z M 276.88844,341.22025 L 292.52454,325.59974 L 308.33972,341.43086 L 292.71985,356.85614 L 276.88844,341.22025 z M 147.20061,336.15134 L 162.82366,320.52837 L 178.6571,336.36204 L 163.01868,351.98513 L 147.20061,336.15134 z M 321.34261,336.15134 L 336.96596,320.52835 L 352.79997,336.36204 L 337.16127,351.98513 L 321.34261,336.15134 z M 50.18661,322.35232 L 58.09464,314.43673 L 66.00237,306.52123 L 81.63847,322.14174 L 73.82781,329.9597 L 65.80706,337.7776 L 50.18661,322.35232 z M 418.36153,322.35232 L 434.17729,306.52123 L 449.81309,322.14174 L 433.98198,337.7776 L 418.36153,322.35232 z M 115.94435,317.07272 L 123.85962,309.15719 L 131.77547,301.24166 L 147.59354,317.0753 L 139.88807,324.78796 L 131.76996,332.50059 L 115.94435,317.07272 z M 352.60177,317.0753 L 368.41724,301.24418 L 384.05333,316.86472 L 368.22164,332.50059 L 352.60177,317.0753 z M 213.56426,315.64676 L 228.9894,299.83155 L 244.41483,315.65467 L 228.98129,331.2828 L 213.56426,315.64676 z M 254.77321,315.85751 L 270.58926,300.02639 L 286.22478,315.64693 L 270.39366,331.2828 L 254.77321,315.85751 z M 171.75373,312.80526 L 187.17916,296.98996 L 203.00999,312.80546 L 187.17858,328.44133 L 171.75373,312.80526 z M 297.18474,312.80546 L 312.82142,297.18489 L 328.44187,312.82088 L 312.80577,328.44141 L 297.18474,312.80546 z M 12.43297,300.0239 L 20.2445,292.2124 L 28.05603,284.40096 L 43.89004,300.23466 L 36.0704,308.04618 L 28.25105,315.85771 L 12.43297,300.0239 z M 456.11285,300.0266 L 471.83791,284.60131 L 487.76727,299.98507 L 471.93122,315.86021 L 456.11285,300.0266 z M 82.44985,296.97431 L 90.36657,289.06525 L 98.28386,281.15615 L 113.90692,296.77915 L 105.98963,304.69598 L 98.07291,312.61282 L 82.44985,296.97431 z M 386.08264,296.97434 L 401.91405,281.15884 L 417.24559,296.98208 L 401.66977,312.57645 L 386.08264,296.97434 z M 143.1414,292.71714 L 158.76446,277.09429 L 174.38694,292.71714 L 158.76446,308.14503 L 143.1414,292.71714 z M 325.60002,292.50913 L 341.23554,276.88862 L 357.0513,292.71974 L 341.43114,308.14503 L 325.60002,292.50913 z M 234.67223,291.69732 L 250.50624,275.8791 L 266.12872,291.50204 L 250.29528,307.3358 L 234.67223,291.69732 z M 193.67394,290.47953 L 209.31004,274.85894 L 225.12522,290.69006 L 209.50535,306.11537 L 193.67394,290.47953 z M 274.85913,290.4795 L 290.49465,274.85899 L 306.31041,290.69011 L 290.69025,306.11537 L 274.85913,290.4795 z M 47.13439,274.24246 L 54.952,266.43221 L 62.77049,258.62192 L 78.39094,274.25789 L 70.57274,282.06817 L 62.75484,289.87842 L 47.13439,274.24246 z M 421.80437,274.13792 L 437.23241,258.42434 L 453.06324,274.25536 L 437.43236,289.83443 L 421.80437,274.13792 z M 112.48846,273.02467 L 128.12456,257.40416 L 143.94003,273.23528 L 128.31958,288.66057 L 112.48846,273.02467 z M 356.04432,273.02471 L 371.68042,257.40414 L 387.49531,273.23526 L 371.87544,288.66057 L 356.04432,273.02471 z M 168.5062,270.99506 L 184.33703,255.17945 L 200.16843,270.99506 L 184.33703,286.63094 L 168.5062,270.99506 z M 300.0263,270.99506 L 315.66239,255.37451 L 331.28255,271.01047 L 315.64675,286.63106 L 300.0263,270.99506 z M 214.1783,269.98521 L 230.00942,254.15419 L 245.82721,269.98786 L 230.0042,285.41318 L 214.1783,269.98521 z M 253.55296,269.98526 L 269.38466,254.15422 L 285.20245,269.98786 L 269.37944,285.41315 L 253.55296,269.98526 z M 10,249.69155 L 17.90773,241.77597 L 25.81518,233.86043 L 41.45156,249.48095 L 33.64148,257.2989 L 25.61987,265.11686 L 10,249.69155 z M 80.63092,249.69155 L 96.44667,233.86043 L 112.08277,249.48098 L 96.25136,265.11681 L 80.63092,249.69155 z M 141.57777,249.74898 L 156.94727,233.8627 L 172.76071,249.69155 L 157.14026,265.11686 L 141.57777,249.74898 z M 192.66668,249.69155 L 208.48215,233.86043 L 224.11824,249.48098 L 208.28713,265.11681 L 192.66668,249.69155 z M 234.67223,249.48098 L 250.30803,233.86043 L 266.12408,249.69155 L 250.50363,265.11681 L 234.67223,249.48098 z M 275.88176,249.69155 L 291.69781,233.8604 L 307.33332,249.48098 L 291.50192,265.11686 L 275.88176,249.69155 z M 327.22364,249.48095 L 342.85916,233.86043 L 358.67521,249.69155 L 343.05476,265.11686 L 327.22364,249.48095 z M 387.91723,249.69155 L 403.73269,233.86044 L 419.36879,249.48096 L 403.53767,265.11686 L 387.91723,249.69155 z M 458.54843,249.69155 L 474.36448,233.86043 L 490,249.48096 L 474.16888,265.11683 L 458.54843,249.69155 z M 214.37593,229.9965 L 230.01203,214.37599 L 245.82721,230.2071 L 230.20705,245.63238 L 214.37593,229.9965 z M 253.75059,229.9965 L 269.38669,214.37596 L 285.20245,230.20707 L 269.582,245.63238 L 253.75059,229.9965 z M 168.5062,229.59058 L 184.33703,213.77497 L 200.16843,229.59061 L 184.33703,245.22646 L 168.5062,229.59058 z M 300.0263,229.59058 L 315.86002,213.77238 L 331.48279,229.39537 L 315.64935,245.22909 L 300.0263,229.59058 z M 355.84119,227.32064 L 371.87921,211.95788 L 387.49821,227.36843 L 371.66738,243.19946 L 355.84119,227.32064 z M 112.6971,227.363 L 128.31958,211.74016 L 143.94264,227.363 L 128.31958,242.79089 L 112.6971,227.363 z M 47.13439,226.34318 L 62.77049,210.72263 L 78.39094,226.35859 L 62.75484,241.97914 L 47.13439,226.34318 z M 421.80437,226.34298 L 437.2298,210.52768 L 453.06063,226.34319 L 437.22951,241.97904 L 421.80437,226.34298 z M 193.88229,209.50226 L 209.50477,193.87944 L 225.12783,209.50228 L 209.50477,224.93014 L 193.88229,209.50226 z M 274.85913,209.29427 L 290.49465,193.67372 L 306.31041,209.50484 L 290.69025,224.93014 L 274.85913,209.29427 z M 234.67223,208.48242 L 242.58894,200.57334 L 250.50624,192.66423 L 266.12872,208.28721 L 258.212,216.20405 L 250.29528,224.12091 L 234.67223,208.48242 z M 142.93305,207.26462 L 158.56886,191.64411 L 174.38433,207.47522 L 158.76446,222.9005 L 142.93305,207.26462 z M 325.60002,207.26466 L 341.23554,191.64409 L 357.0513,207.47522 L 341.43114,222.90052 L 325.60002,207.26466 z M 82.44985,203.2054 L 98.28386,187.38721 L 113.90692,203.01017 L 98.07291,218.84389 L 82.44985,203.2054 z M 386.08264,203.20537 L 401.91637,187.38718 L 417.53943,203.01017 L 401.7057,218.84389 L 386.08264,203.20537 z M 12.43297,199.76012 L 28.05603,184.13716 L 43.89004,199.97088 L 28.25105,215.59396 L 12.43297,199.76012 z M 456.30787,199.95799 L 471.94426,184.33742 L 487.56413,199.97339 L 471.92861,215.59396 L 456.30787,199.95799 z M 171.5561,187.17644 L 187.17887,171.55345 L 203.0126,187.38715 L 187.37476,203.01023 L 171.5561,187.17644 z M 296.98972,187.17911 L 312.81272,171.75383 L 328.63921,187.18172 L 312.80751,203.01274 L 296.98972,187.17911 z M 254.7706,184.3349 L 270.6023,168.50378 L 286.4227,184.34018 L 270.59187,200.17129 L 254.7706,184.3349 z M 213.36663,184.33484 L 221.17816,176.5234 L 228.9894,168.71199 L 244.61217,184.33484 L 236.90612,192.04877 L 228.9894,199.76273 L 213.36663,184.33484 z M 115.94696,183.11966 L 131.76214,167.28854 L 147.39881,182.90909 L 131.56712,198.54493 L 115.94696,183.11966 z M 352.60177,183.11963 L 368.41724,167.28852 L 384.05333,182.90909 L 368.22164,198.54496 L 352.60177,183.11963 z M 50.18661,177.84261 L 66.00237,162.01149 L 81.63847,177.63204 L 65.80706,193.26789 L 50.18661,177.84261 z M 418.36153,177.84261 L 434.17729,162.01149 L 449.81309,177.63204 L 433.98198,193.26791 L 418.36153,177.84261 z M 147.20061,163.63271 L 162.82366,148.00976 L 178.6571,163.84343 L 163.01868,179.4665 L 147.20061,163.63271 z M 321.34261,163.63271 L 336.96596,148.00973 L 352.79997,163.84343 L 337.16127,179.4665 L 321.34261,163.63271 z M 191.64376,158.55349 L 199.46225,150.74324 L 207.27986,142.93298 L 223.09533,158.76409 L 215.39073,166.47673 L 207.47546,174.18936 L 191.64376,158.55349 z M 277.09679,158.76147 L 292.71956,143.13863 L 308.34233,158.76147 L 292.71956,174.18936 L 277.09679,158.76147 z M 234.67223,156.92977 L 250.30803,141.30926 L 266.12408,157.14037 L 250.50363,172.56568 L 234.67223,156.92977 z M 87.32072,156.52388 L 102.9571,140.90334 L 118.57727,156.53929 L 102.94146,172.15984 L 87.32072,156.52388 z M 381.48011,156.79186 L 397.04521,140.71074 L 412.87401,156.52388 L 397.04318,172.15973 L 381.48011,156.79186 z M 16.08619,150.2371 L 31.9176,134.40597 L 47.73829,150.24236 L 31.90659,166.07347 L 16.08619,150.2371 z M 452.45673,150.2371 L 468.28814,134.40597 L 484.10854,150.24236 L 468.27771,166.07347 L 452.45673,150.2371 z M 121.8248,137.44533 L 137.65853,121.62713 L 153.28158,137.25015 L 137.44786,153.08382 L 121.8248,137.44533 z M 346.70798,137.44533 L 362.54142,121.62716 L 378.16448,137.25012 L 362.33104,153.08385 L 346.70798,137.44533 z M 167.28855,131.76239 L 175.20527,123.85328 L 183.12257,115.94419 L 198.74563,131.56715 L 190.82833,139.48401 L 182.91161,147.40087 L 167.28855,131.76239 z M 301.24452,131.76236 L 317.07535,115.94689 L 332.50078,131.77008 L 317.06753,147.39824 L 301.24452,131.76236 z M 55.46114,129.12883 L 71.29197,113.2978 L 87.0973,129.11821 L 71.12506,144.45626 L 55.46114,129.12883 z M 413.08497,129.13145 L 428.90044,113.30033 L 444.53654,128.92091 L 428.70513,144.55677 L 413.08497,129.13145 z M 256.80079,128.3171 L 272.63161,112.48596 L 288.45288,128.32236 L 272.62118,144.15346 L 256.80079,128.3171 z M 211.33674,128.31702 L 226.9598,112.69417 L 242.58286,128.31702 L 226.9598,143.7449 L 211.33674,128.31702 z M 94.4304,110.86221 L 110.05288,95.23937 L 125.67565,110.86221 L 110.05288,126.2901 L 94.4304,110.86221 z M 374.11571,110.86488 L 389.939,95.43969 L 405.76201,110.86488 L 389.939,126.29008 L 374.11571,110.86488 z M 140.90345,102.94162 L 148.72136,95.13134 L 156.53955,87.32107 L 172.15971,102.95703 L 164.34152,110.76729 L 156.52361,118.57758 L 140.90345,102.94162 z M 327.62933,102.94162 L 343.46103,87.12609 L 358.88559,102.94934 L 343.45263,118.57749 L 327.62933,102.94162 z M 187.38983,98.28109 L 203.20559,82.44995 L 218.84111,98.0705 L 203.0097,113.70637 L 187.38983,98.28109 z M 281.15889,98.28106 L 296.97407,82.44995 L 312.61017,98.0705 L 296.77934,113.70637 L 281.15889,98.28106 z M 234.67223,96.44678 L 250.50624,80.62861 L 266.12872,96.25159 L 250.29528,112.08527 L 234.67223,96.44678 z M 66.82969,80.82626 L 82.64516,64.99512 L 98.28126,80.61569 L 82.44985,96.25154 L 66.82969,80.82626 z M 403.74573,80.82362 L 419.57714,64.99262 L 435.39493,80.82623 L 419.57193,96.25154 L 403.74573,80.82362 z M 113.30042,71.27937 L 129.13125,55.46386 L 144.55697,71.28709 L 129.12371,86.91526 L 113.30042,71.27937 z M 355.23237,71.27937 L 371.06609,55.46117 L 386.68915,71.08415 L 370.85571,86.91785 L 355.23237,71.27937 z M 162.012,66.00232 L 177.84514,50.18415 L 193.4682,65.80711 L 177.63447,81.64083 L 162.012,66.00232 z M 306.52108,66.00232 L 322.35509,50.18415 L 337.97815,65.80714 L 322.14414,81.6408 L 306.52108,66.00232 z M 210.31673,62.75474 L 225.74216,46.93941 L 241.57327,62.75494 L 225.74216,78.39078 L 210.31673,62.75474 z M 258.21606,62.75474 L 273.64091,46.93941 L 289.47232,62.75494 L 273.64091,78.39078 L 258.21606,62.75474 z M 135.62661,31.90453 L 151.46004,16.08633 L 167.0831,31.70931 L 151.24909,47.54301 L 135.62661,31.90453 z M 334.12411,31.90453 L 349.95813,16.08633 L 365.58089,31.70929 L 349.74717,47.54301 L 334.12411,31.90453 z M 184.1394,28.05334 L 199.76245,12.43039 L 215.59618,28.26408 L 199.95805,43.88716 L 184.1394,28.05334 z M 284.40324,28.05334 L 300.02659,12.43039 L 315.86002,28.26411 L 300.22161,43.88719 L 284.40324,28.05334 z M 234.67223,25.81563 L 250.50624,9.99744 L 266.12872,25.62042 L 250.29528,41.45415 L 234.67223,25.81563 z" id="path2453" style="fill: rgb(0, 0, 0);"/>
</svg>